<svg width="71" height="29" viewBox="0 0 71 29" fill="none" xmlns="http://www.w3.org/2000/svg">
<path d="M0.777188 29V9.56H6.89719V29H0.777188ZM3.85719 6.88C2.89719 6.88 2.09719 6.56 1.45719 5.92C0.843854 5.25333 0.537188 4.45333 0.537188 3.52C0.537188 2.56 0.843854 1.76 1.45719 1.12C2.09719 0.479999 2.89719 0.159999 3.85719 0.159999C4.81719 0.159999 5.60385 0.479999 6.21719 1.12C6.83052 1.76 7.13719 2.56 7.13719 3.52C7.13719 4.45333 6.83052 5.25333 6.21719 5.92C5.60385 6.56 4.81719 6.88 3.85719 6.88ZM18.6869 29V1.16H24.9669V29H18.6869ZM9.84688 6.24V0.759999H33.8069V6.24H9.84688ZM37.3138 29V0.759999H43.5938V29H37.3138ZM53.8325 18.72V13.84H59.9125C60.6858 13.84 61.3925 13.68 62.0325 13.36C62.6725 13.04 63.1792 12.5733 63.5525 11.96C63.9258 11.3467 64.1125 10.6 64.1125 9.72C64.1125 8.86667 63.9258 8.13333 63.5525 7.52C63.1792 6.90667 62.6725 6.44 62.0325 6.12C61.3925 5.8 60.6858 5.64 59.9125 5.64H53.8325V0.759999H60.8325C62.6192 0.759999 64.2325 1.12 65.6725 1.84C67.1125 2.56 68.2458 3.6 69.0725 4.96C69.9258 6.29333 70.3525 7.88 70.3525 9.72C70.3525 11.56 69.9258 13.16 69.0725 14.52C68.2458 15.8533 67.1125 16.8933 65.6725 17.64C64.2325 18.36 62.6192 18.72 60.8325 18.72H53.8325ZM49.0325 29V0.759999H55.3125V29H49.0325Z" fill="white"/>
</svg>
